<svg width="226" height="143" viewBox="0 0 226 143" fill="none" xmlns="http://www.w3.org/2000/svg">
<path d="M22.8594 62V0.125H35.2344V51.4531H47.9609V62H22.8594ZM61.4258 62.5625C58.6133 62.5625 56.457 61.9766 54.957 60.8047C53.4805 59.6328 52.4727 58.0039 51.9336 55.918C51.3945 53.8086 51.125 51.3477 51.125 48.5352V9.26562H63.7812V47.0586C63.7812 49.168 63.9453 50.6445 64.2734 51.4883C64.6016 52.3086 65.375 52.7188 66.5938 52.7188C67.9062 52.7188 68.7266 52.1328 69.0547 50.9609C69.4062 49.7891 69.582 48.2773 69.582 46.4258V9.26562H82.1328V62H69.5469V56.375C68.75 58.3906 67.7891 59.9258 66.6641 60.9805C65.5625 62.0352 63.8164 62.5625 61.4258 62.5625ZM103.051 62.5625C97.1445 62.5625 92.9492 61.0508 90.4648 58.0273C88.0039 55.0039 86.7734 50.5625 86.7734 44.7031V28.4609C86.7734 24.0547 87.2422 20.3867 88.1797 17.457C89.1172 14.5273 90.7578 12.3359 93.1016 10.8828C95.4453 9.42969 98.7031 8.70312 102.875 8.70312C105.781 8.70312 108.383 9.21875 110.68 10.25C113 11.2812 114.828 12.793 116.164 14.7852C117.5 16.7773 118.168 19.2148 118.168 22.0977V30.1484H105.336V22.7656C105.336 21.5469 105.16 20.5273 104.809 19.707C104.457 18.8633 103.695 18.4414 102.523 18.4414C100.461 18.4414 99.4297 19.9063 99.4297 22.8359V48.3945C99.4297 49.4727 99.6641 50.4688 100.133 51.3828C100.602 52.2734 101.375 52.7188 102.453 52.7188C103.555 52.7188 104.316 52.2852 104.738 51.418C105.184 50.5273 105.406 49.4961 105.406 48.3242V39.4648H118.168V48.6758C118.168 51.582 117.512 54.0781 116.199 56.1641C114.91 58.2266 113.129 59.8086 110.855 60.9102C108.582 62.0117 105.98 62.5625 103.051 62.5625ZM132.16 62.5625C129.23 62.5625 126.992 61.8828 125.445 60.5234C123.922 59.1641 122.879 57.3008 122.316 54.9336C121.754 52.5664 121.473 49.8828 121.473 46.8828C121.473 43.6719 121.789 41.0469 122.422 39.0078C123.055 36.9453 124.133 35.2578 125.656 33.9453C127.203 32.6328 129.324 31.5195 132.02 30.6055L139.824 27.9336V22.5195C139.824 19.6836 138.898 18.2656 137.047 18.2656C135.359 18.2656 134.516 19.4141 134.516 21.7109V24.875H122.281C122.258 24.6875 122.246 24.4531 122.246 24.1719C122.246 23.8672 122.246 23.5273 122.246 23.1523C122.246 17.9023 123.477 14.1875 125.938 12.0078C128.422 9.80469 132.348 8.70312 137.715 8.70312C140.527 8.70312 143.047 9.20703 145.273 10.2148C147.5 11.1992 149.258 12.6641 150.547 14.6094C151.859 16.5547 152.516 18.957 152.516 21.8164V62H140V55.7422C139.391 57.9453 138.383 59.6328 136.977 60.8047C135.57 61.9766 133.965 62.5625 132.16 62.5625ZM137.117 52.7891C138.148 52.7891 138.852 52.3555 139.227 51.4883C139.602 50.6211 139.789 49.6836 139.789 48.6758V33.9805C138.055 34.6836 136.707 35.5742 135.746 36.6523C134.785 37.707 134.305 39.2656 134.305 41.3281V48.1133C134.305 51.2305 135.242 52.7891 137.117 52.7891ZM171.816 62.5625C161.41 62.5625 156.207 57.2891 156.207 46.7422V42.5586H168.863V48.7461C168.863 49.9414 169.098 50.8789 169.566 51.5586C170.035 52.2383 170.785 52.5781 171.816 52.5781C173.645 52.5781 174.559 51.207 174.559 48.4648C174.559 46.168 174.078 44.457 173.117 43.332C172.156 42.1836 170.984 41.082 169.602 40.0273L162.887 34.8594C160.777 33.2188 159.172 31.4844 158.07 29.6562C156.969 27.8281 156.418 25.2852 156.418 22.0273C156.418 19.0039 157.133 16.5078 158.562 14.5391C160.016 12.5703 161.926 11.1055 164.293 10.1445C166.684 9.18359 169.262 8.70312 172.027 8.70312C182.246 8.70312 187.355 13.8008 187.355 23.9961V24.9805H174.348V22.9766C174.348 21.9219 174.16 20.9023 173.785 19.918C173.434 18.9336 172.73 18.4414 171.676 18.4414C169.895 18.4414 169.004 19.3789 169.004 21.2539C169.004 23.1523 169.754 24.6406 171.254 25.7188L179.059 31.4141C181.496 33.1719 183.535 35.2578 185.176 37.6719C186.84 40.0859 187.672 43.2969 187.672 47.3047C187.672 52.2734 186.254 56.0586 183.418 58.6602C180.605 61.2617 176.738 62.5625 171.816 62.5625ZM7.84766 142L0.21875 80.0898H11.9961L16.5312 122.207L20.5742 80.0898H32.3516L24.7227 142H7.84766ZM35.6914 86.0312V75.5547H48.2773V86.0312H35.6914ZM35.6914 142V89.2656H48.2773V142H35.6914ZM53.2695 142V89.2656H65.8555V95.9805C66.3242 93.9648 67.1914 92.2539 68.457 90.8477C69.7461 89.418 71.5273 88.7031 73.8008 88.7031C77.457 88.7031 80.1055 89.8281 81.7461 92.0781C83.4102 94.3281 84.2422 97.4102 84.2422 101.324V142H71.832V102.625C71.832 101.594 71.6211 100.645 71.1992 99.7773C70.7773 98.8867 70.0508 98.4414 69.0195 98.4414C68.0586 98.4414 67.3438 98.7812 66.875 99.4609C66.4297 100.117 66.1484 100.949 66.0312 101.957C65.9141 102.941 65.8555 103.926 65.8555 104.91V142H53.2695ZM88.8477 142V89.2656H101.434V142H88.8477ZM86.8086 87.4023V79.5625L103.508 71.8984V84.0977L86.8086 87.4023ZM122 142.562C116.094 142.562 111.898 141.051 109.414 138.027C106.953 135.004 105.723 130.562 105.723 124.703V108.461C105.723 104.055 106.191 100.387 107.129 97.457C108.066 94.5273 109.707 92.3359 112.051 90.8828C114.395 89.4297 117.652 88.7031 121.824 88.7031C124.73 88.7031 127.332 89.2188 129.629 90.25C131.949 91.2812 133.777 92.793 135.113 94.7852C136.449 96.7773 137.117 99.2148 137.117 102.098V110.148H124.285V102.766C124.285 101.547 124.109 100.527 123.758 99.707C123.406 98.8633 122.645 98.4414 121.473 98.4414C119.41 98.4414 118.379 99.9062 118.379 102.836V128.395C118.379 129.473 118.613 130.469 119.082 131.383C119.551 132.273 120.324 132.719 121.402 132.719C122.504 132.719 123.266 132.285 123.688 131.418C124.133 130.527 124.355 129.496 124.355 128.324V119.465H137.117V128.676C137.117 131.582 136.461 134.078 135.148 136.164C133.859 138.227 132.078 139.809 129.805 140.91C127.531 142.012 124.93 142.562 122 142.562ZM141.441 86.0312V75.5547H154.027V86.0312H141.441ZM141.441 142V89.2656H154.027V142H141.441ZM169.18 142.562C166.367 142.562 164.211 141.977 162.711 140.805C161.234 139.633 160.227 138.004 159.688 135.918C159.148 133.809 158.879 131.348 158.879 128.535V89.2656H171.535V127.059C171.535 129.168 171.699 130.645 172.027 131.488C172.355 132.309 173.129 132.719 174.348 132.719C175.66 132.719 176.48 132.133 176.809 130.961C177.16 129.789 177.336 128.277 177.336 126.426V89.2656H189.887V142H177.301V136.375C176.504 138.391 175.543 139.926 174.418 140.98C173.316 142.035 171.57 142.562 169.18 142.562ZM209.398 142.562C198.992 142.562 193.789 137.289 193.789 126.742V122.559H206.445V128.746C206.445 129.941 206.68 130.879 207.148 131.559C207.617 132.238 208.367 132.578 209.398 132.578C211.227 132.578 212.141 131.207 212.141 128.465C212.141 126.168 211.66 124.457 210.699 123.332C209.738 122.184 208.566 121.082 207.184 120.027L200.469 114.859C198.359 113.219 196.754 111.484 195.652 109.656C194.551 107.828 194 105.285 194 102.027C194 99.0039 194.715 96.5078 196.145 94.5391C197.598 92.5703 199.508 91.1055 201.875 90.1445C204.266 89.1836 206.844 88.7031 209.609 88.7031C219.828 88.7031 224.938 93.8008 224.938 103.996V104.98H211.93V102.977C211.93 101.922 211.742 100.902 211.367 99.918C211.016 98.9336 210.312 98.4414 209.258 98.4414C207.477 98.4414 206.586 99.3789 206.586 101.254C206.586 103.152 207.336 104.641 208.836 105.719L216.641 111.414C219.078 113.172 221.117 115.258 222.758 117.672C224.422 120.086 225.254 123.297 225.254 127.305C225.254 132.273 223.836 136.059 221 138.66C218.188 141.262 214.32 142.562 209.398 142.562Z" fill="#141414"/>
</svg>
